<svg xmlns="http://www.w3.org/2000/svg" xmlns:xlink="http://www.w3.org/1999/xlink" width="102" height="68.125" viewBox="0 0 102 68.125">
  <defs>
    <linearGradient id="linear-gradient" x1="0.5" y1="0.01" x2="0.5" y2="1" gradientUnits="objectBoundingBox">
      <stop offset="0" stop-color="#171738"/>
      <stop offset="1" stop-color="#e4572e"/>
    </linearGradient>
  </defs>
  <path id="Subtraction_10" data-name="Subtraction 10" d="M-617,74h0V67a43.7,43.7,0,0,0,31.1-12.9A43.7,43.7,0,0,0-573,23a43.989,43.989,0,0,0-2.066-13.363,5.242,5.242,0,0,1,.215-1.359,3.185,3.185,0,0,1,2.355-2.3,3.656,3.656,0,0,1,.869-.109,3.763,3.763,0,0,1,3.193,2.269l-.049-.14.072.11A49.979,49.979,0,0,1-566,23.5a49.754,49.754,0,0,1-4.008,19.657,50.3,50.3,0,0,1-10.93,16.052,50.876,50.876,0,0,1-16.212,10.822A51.065,51.065,0,0,1-616.985,74H-617Zm0,0h0l-.006,0a51.079,51.079,0,0,1-19.843-3.967,50.892,50.892,0,0,1-16.212-10.822,50.3,50.3,0,0,1-10.93-16.052A49.754,49.754,0,0,1-668,23.5a49.98,49.98,0,0,1,2.41-15.387l.071-.111-.049.141a3.769,3.769,0,0,1,3.193-2.268,3.689,3.689,0,0,1,.869.108,3.185,3.185,0,0,1,2.355,2.3,5.363,5.363,0,0,1,.213,1.364A43.981,43.981,0,0,0-661,23a44.049,44.049,0,0,0,44,44v7Z" transform="translate(668 -5.875)" fill="url(#linear-gradient)"/>
</svg>
